<?xml version="1.0" encoding="UTF-8" standalone="no"?>
<!DOCTYPE svg PUBLIC "-//W3C//DTD SVG 1.1//EN" "http://www.w3.org/Graphics/SVG/1.1/DTD/svg11.dtd">
<svg width="100%" height="100%" viewBox="0 0 500 500" version="1.1" xmlns="http://www.w3.org/2000/svg" xmlns:xlink="http://www.w3.org/1999/xlink" xml:space="preserve" xmlns:serif="http://www.serif.com/" style="fill-rule:evenodd;clip-rule:evenodd;stroke-linejoin:round;stroke-miterlimit:2;">
    <g transform="matrix(1,0,0,1,-0.348525,1.66378)">
        <g transform="matrix(1,0,0,1,-9,0)">
            <rect x="128.142" y="352.898" width="11.6" height="80.4" style="fill:rgb(55,63,81);"/>
        </g>
        <g transform="matrix(1,0,0,1,-3.65812,-9.90156)">
            <rect x="385.2" y="125.6" width="13.6" height="133.2" style="fill:rgb(55,63,81);"/>
            <rect x="115.2" y="125.6" width="13.6" height="133.2" style="fill:rgb(55,63,81);"/>
        </g>
        <g transform="matrix(1,0,0,1,-9,0)">
            <path d="M414.142,362.898L104.542,362.898C92.542,362.898 82.942,353.298 82.942,341.298L82.942,241.298L436.142,241.298L436.142,341.298C435.742,353.298 426.142,362.898 414.142,362.898Z" style="fill:white;fill-rule:nonzero;"/>
        </g>
        <g transform="matrix(1,0,0,1,-9,0)">
            <path d="M414.142,362.898L104.542,362.898C92.542,362.898 82.942,353.298 82.942,341.298L82.942,257.298L436.142,257.298L436.142,341.298C435.742,353.298 426.142,362.898 414.142,362.898Z" style="fill:rgb(255,112,88);fill-rule:nonzero;"/>
        </g>
        <g transform="matrix(1,0,0,1,-9,0)">
            <path d="M268.542,362.898L396.942,362.898C396.942,327.298 368.142,298.498 332.542,298.498C297.342,298.898 268.542,327.698 268.542,362.898Z" style="fill:rgb(241,84,63);fill-rule:nonzero;"/>
        </g>
        <g transform="matrix(1,0,0,1,-9,0)">
            <path d="M126.942,115.698L88.542,115.698L126.942,62.498L156.942,62.498L126.942,115.698Z" style="fill:rgb(255,112,88);fill-rule:nonzero;"/>
        </g>
        <g transform="matrix(1,0,0,1,-9,0)">
            <path d="M165.742,115.698L126.942,115.698L156.942,62.498L187.342,62.498L165.742,115.698Z" style="fill:white;fill-rule:nonzero;"/>
        </g>
        <g transform="matrix(1,0,0,1,-9,0)">
            <path d="M204.142,115.698L165.742,115.698L187.342,62.498L217.342,62.498L204.142,115.698Z" style="fill:rgb(255,112,88);fill-rule:nonzero;"/>
        </g>
        <g transform="matrix(1,0,0,1,-9,0)">
            <path d="M242.942,115.698L204.142,115.698L217.342,62.498L247.342,62.498L242.942,115.698Z" style="fill:white;fill-rule:nonzero;"/>
        </g>
        <g transform="matrix(1,0,0,1,-9,0)">
            <path d="M281.342,115.698L242.942,115.698L247.342,62.498L277.342,62.498L281.342,115.698Z" style="fill:rgb(255,112,88);fill-rule:nonzero;"/>
        </g>
        <g transform="matrix(1,0,0,1,-9,0)">
            <path d="M320.142,115.698L281.342,115.698L277.342,62.498L307.342,62.498L320.142,115.698Z" style="fill:white;fill-rule:nonzero;"/>
        </g>
        <g transform="matrix(1,0,0,1,-9,0)">
            <path d="M358.542,115.698L320.142,115.698L307.342,62.498L337.342,62.498L358.542,115.698Z" style="fill:rgb(255,112,88);fill-rule:nonzero;"/>
        </g>
        <g transform="matrix(1,0,0,1,-9,0)">
            <path d="M397.342,115.698L358.542,115.698L337.342,62.498L367.342,62.498L397.342,115.698Z" style="fill:white;fill-rule:nonzero;"/>
        </g>
        <g transform="matrix(1,0,0,1,-9,0)">
            <path d="M435.742,115.698L397.342,115.698L367.342,62.498L397.342,62.498L435.742,115.698Z" style="fill:rgb(255,112,88);fill-rule:nonzero;"/>
        </g>
        <g transform="matrix(1,0,0,1,-9,0)">
            <path d="M107.742,146.098C96.942,146.098 88.542,137.298 88.542,126.898L88.542,115.698L126.942,115.698L126.942,126.898C126.942,137.298 118.542,146.098 107.742,146.098Z" style="fill:rgb(241,84,63);fill-rule:nonzero;"/>
        </g>
        <g transform="matrix(1,0,0,1,-9,0)">
            <path d="M146.542,146.098C135.742,146.098 127.342,137.298 127.342,126.898L127.342,115.698L165.742,115.698L165.742,126.898C165.742,137.298 156.942,146.098 146.542,146.098Z" style="fill:rgb(230,233,238);fill-rule:nonzero;"/>
        </g>
        <g transform="matrix(1,0,0,1,-9,0)">
            <path d="M184.942,146.098C174.142,146.098 165.742,137.298 165.742,126.898L165.742,115.698L204.142,115.698L204.142,126.898C204.142,137.298 195.742,146.098 184.942,146.098Z" style="fill:rgb(241,84,63);fill-rule:nonzero;"/>
        </g>
        <g transform="matrix(1,0,0,1,-9,0)">
            <path d="M223.742,146.098C212.942,146.098 204.542,137.298 204.542,126.898L204.542,115.698L242.942,115.698L242.942,126.898C242.942,137.298 234.142,146.098 223.742,146.098Z" style="fill:rgb(230,233,238);fill-rule:nonzero;"/>
        </g>
        <g transform="matrix(1,0,0,1,-9,0)">
            <path d="M262.142,146.098C251.342,146.098 242.942,137.298 242.942,126.898L242.942,115.698L281.342,115.698L281.342,126.898C281.342,137.298 272.942,146.098 262.142,146.098Z" style="fill:rgb(241,84,63);fill-rule:nonzero;"/>
        </g>
        <g transform="matrix(1,0,0,1,-9,0)">
            <path d="M300.942,146.098C290.142,146.098 281.742,137.298 281.742,126.898L281.742,115.698L320.142,115.698L320.142,126.898C320.142,137.298 311.342,146.098 300.942,146.098Z" style="fill:rgb(230,233,238);fill-rule:nonzero;"/>
        </g>
        <g transform="matrix(1,0,0,1,-9,0)">
            <path d="M339.342,146.098C328.542,146.098 320.142,137.298 320.142,126.898L320.142,115.698L358.542,115.698L358.542,126.898C358.542,137.298 350.142,146.098 339.342,146.098Z" style="fill:rgb(241,84,63);fill-rule:nonzero;"/>
        </g>
        <g transform="matrix(1,0,0,1,-9,0)">
            <path d="M378.142,146.098C367.342,146.098 358.942,137.298 358.942,126.898L358.942,115.698L397.342,115.698L397.342,126.898C397.342,137.298 388.542,146.098 378.142,146.098Z" style="fill:rgb(230,233,238);fill-rule:nonzero;"/>
        </g>
        <g transform="matrix(1,0,0,1,-9,0)">
            <path d="M416.542,146.098C405.742,146.098 397.342,137.298 397.342,126.898L397.342,115.698L435.742,115.698L435.742,126.898C435.742,137.298 427.342,146.098 416.542,146.098Z" style="fill:rgb(241,84,63);fill-rule:nonzero;"/>
        </g>
        <g transform="matrix(1,0,0,1,-9,0)">
            <path d="M393.342,360.498L345.342,360.498L389.742,342.098L388.142,337.698L343.342,356.098L377.342,322.098L374.142,318.498L339.742,352.898L358.542,308.098L353.742,306.098L335.342,350.898L335.342,302.498L330.542,302.498L330.542,350.898L312.142,306.098L307.742,308.098L326.142,352.898L291.742,318.498L288.542,322.098L322.542,356.098L278.142,337.698L276.142,342.098L320.942,360.498L272.542,360.498L272.542,365.298L320.942,365.298L276.142,384.098L278.142,388.498L322.542,370.098L288.542,404.098L291.742,407.698L326.142,373.298L307.742,418.098L312.142,419.698L330.542,375.298L330.542,423.698L335.342,423.698L335.342,375.298L353.742,419.698L358.542,418.098L339.742,373.298L374.142,407.698L377.342,404.098L343.342,370.098L388.142,388.498L389.742,384.098L345.342,365.298L393.342,365.298L393.342,360.498Z" style="fill:rgb(230,233,238);fill-rule:nonzero;"/>
        </g>
        <g transform="matrix(1,0,0,1,-3.65812,-9.90156)">
            <path d="M327.6,302.8C288.8,302.8 257.2,334.4 257.2,373.2C257.2,412 288.8,443.6 327.6,443.6C366.4,443.6 398,412 398,373.2C398,334 366.4,302.8 327.6,302.8ZM327.6,430.4C295.6,430.4 270,404.8 270,372.8C270,340.8 295.6,315.2 327.6,315.2C359.6,315.2 385.2,341.2 385.2,372.8C385.2,404.8 359.6,430.4 327.6,430.4Z" style="fill:rgb(55,63,81);fill-rule:nonzero;"/>
            <circle cx="327.6" cy="372.8" r="17.2" style="fill:rgb(55,63,81);"/>
        </g>
    </g>
</svg>
